<?xml version="1.0" standalone="no"?>
<!DOCTYPE svg PUBLIC "-//W3C//DTD SVG 20010904//EN"
 "http://www.w3.org/TR/2001/REC-SVG-20010904/DTD/svg10.dtd">
<svg version="1.0" xmlns="http://www.w3.org/2000/svg"
 width="512.000000pt" height="512.000000pt" viewBox="0 0 512.000000 512.000000"
 preserveAspectRatio="xMidYMid meet">
<metadata>
Created by potrace 1.14, written by Peter Selinger 2001-2017
</metadata>
<g transform="translate(0.000000,512.000000) scale(0.100000,-0.100000)"
fill="#000000" stroke="none">
<path d="M2512 5055 l-27 -23 -1 -338 c0 -187 4 -350 8 -363 24 -66 114 -69
135 -4 5 16 9 180 8 366 -1 322 -1 338 -20 356 -31 31 -71 34 -103 6z"/>
<path d="M1899 4566 c-36 -18 -46 -57 -27 -113 47 -142 82 -230 97 -246 25
-25 77 -25 103 1 29 29 26 60 -21 187 -23 61 -41 115 -41 121 0 16 -44 54 -67
58 -11 3 -31 -1 -44 -8z"/>
<path d="M3153 4568 c-36 -17 -138 -292 -124 -331 20 -51 86 -68 120 -31 21
22 111 264 111 299 0 49 -61 84 -107 63z"/>
<path d="M1080 4531 c-17 -16 -27 -36 -25 -47 2 -10 4 -22 4 -26 1 -7 71 -96
142 -179 45 -52 134 -158 222 -264 95 -114 125 -128 172 -80 44 43 35 68 -76
200 -294 350 -350 415 -357 416 -4 0 -17 2 -30 5 -16 3 -32 -5 -52 -25z"/>
<path d="M3931 4522 c-20 -20 -57 -62 -82 -92 -26 -30 -88 -104 -138 -165 -98
-116 -102 -121 -169 -201 -51 -61 -56 -102 -16 -133 34 -27 67 -27 97 2 14 12
71 78 129 147 120 144 142 170 184 219 98 114 124 152 124 185 0 38 -22 62
-64 70 -24 4 -35 -1 -65 -32z"/>
<path d="M2497 4014 c-1 -1 -36 -4 -77 -7 -155 -12 -316 -59 -485 -143 -180
-89 -226 -132 -204 -192 6 -15 2 -24 -14 -35 -12 -9 -46 -38 -74 -66 -50 -47
-55 -49 -83 -39 -40 13 -66 -4 -121 -78 -122 -166 -221 -388 -250 -562 l-12
-71 -51 -17 c-28 -9 -97 -41 -153 -71 -56 -30 -110 -56 -120 -58 -10 -2 -32
-8 -49 -13 -45 -14 -211 -7 -259 11 -23 8 -81 37 -130 63 -114 62 -179 83
-282 91 -78 6 -82 5 -107 -20 -15 -15 -26 -37 -26 -52 0 -28 44 -80 60 -70 12
8 12 9 14 -154 l1 -134 -27 -9 c-52 -18 -60 -101 -12 -133 13 -8 24 -12 24 -8
0 5 4 3 8 -4 6 -10 9 -215 3 -244 0 -4 -12 -10 -25 -13 -28 -7 -51 -55 -42
-91 4 -15 19 -32 39 -41 l32 -15 0 -140 0 -139 -32 -19 c-56 -35 -56 -98 0
-128 l33 -18 -1 -675 0 -675 2485 0 2485 0 0 674 0 674 30 17 c58 32 53 116
-8 139 -21 8 -22 13 -21 147 2 162 1 157 13 150 14 -9 61 44 61 68 0 28 -26
65 -54 75 -20 8 -21 14 -20 127 2 141 2 137 13 130 14 -9 61 44 61 68 0 28
-26 65 -54 75 -20 8 -21 15 -21 146 l0 138 30 17 c42 23 55 72 28 108 -19 25
-26 27 -94 28 -97 2 -168 -20 -314 -95 -134 -69 -184 -81 -300 -76 -94 4 -135
18 -259 84 -50 27 -114 56 -142 65 l-51 17 -12 70 c-23 139 -105 341 -194 480
-226 353 -627 599 -1031 635 -68 6 -205 12 -209 8z"/>
<path d="M928 3751 c-15 -12 -28 -31 -30 -44 -5 -28 17 -69 45 -83 12 -6 70
-39 129 -73 90 -53 111 -62 137 -56 55 12 78 72 44 113 -23 27 -238 151 -272
158 -18 4 -35 -1 -53 -15z"/>
<path d="M4005 3699 c-66 -39 -128 -79 -137 -91 -25 -29 -22 -65 8 -95 20 -20
32 -24 55 -19 34 6 249 128 271 153 42 47 10 124 -51 123 -14 -1 -80 -32 -146
-71z"/>
<path d="M333 3228 c-33 -16 -46 -63 -28 -98 15 -30 26 -36 85 -45 19 -3 69
-12 110 -20 41 -8 143 -26 225 -40 83 -14 161 -27 175 -30 110 -25 161 -14
179 35 12 37 -16 86 -56 94 -30 6 -364 66 -398 71 -11 1 -73 12 -139 24 -134
24 -124 23 -153 9z"/>
<path d="M4719 3236 c-2 -2 -22 -7 -44 -10 -23 -4 -52 -8 -65 -11 -26 -5 -65
-12 -115 -20 -16 -2 -43 -7 -58 -11 -16 -3 -38 -7 -50 -9 -12 -1 -65 -10 -117
-19 -52 -10 -106 -19 -120 -21 -65 -12 -76 -16 -92 -36 -52 -62 6 -137 91
-118 20 4 50 10 66 13 17 3 55 9 85 15 75 13 93 16 260 45 251 44 236 40 255
76 19 36 4 83 -31 99 -25 11 -57 15 -65 7z"/>
</g>
</svg>
